<svg width="422" height="241" viewBox="0 0 422 241" fill="none" xmlns="http://www.w3.org/2000/svg">
<g clip-path="url(#clip0_3194_6174)">
<line x1="17.6653" x2="17.6653" y2="316" stroke="#242F40" stroke-width="0.219444"/>
<line x1="35.2208" x2="35.2208" y2="316" stroke="#242F40" stroke-width="0.219444"/>
<line x1="52.7763" x2="52.7763" y2="316" stroke="#242F40" stroke-width="0.219444"/>
<line x1="70.3319" x2="70.3319" y2="316" stroke="#242F40" stroke-width="0.219444"/>
<line x1="87.8876" x2="87.8876" y2="316" stroke="#242F40" stroke-width="0.219444"/>
<line x1="105.443" x2="105.443" y2="316" stroke="#242F40" stroke-width="0.219444"/>
<line x1="122.999" x2="122.999" y2="316" stroke="#242F40" stroke-width="0.219444"/>
<line x1="140.554" x2="140.554" y2="316" stroke="#242F40" stroke-width="0.219444"/>
<line x1="158.11" x2="158.11" y2="316" stroke="#242F40" stroke-width="0.219444"/>
<line x1="175.665" x2="175.665" y2="316" stroke="#242F40" stroke-width="0.219444"/>
<line x1="193.221" x2="193.221" y2="316" stroke="#242F40" stroke-width="0.219444"/>
<line x1="210.776" x2="210.776" y2="316" stroke="#242F40" stroke-width="0.219444"/>
<line x1="228.332" x2="228.332" y2="316" stroke="#242F40" stroke-width="0.219444"/>
<line x1="245.887" x2="245.887" y2="316" stroke="#242F40" stroke-width="0.219444"/>
<line x1="263.443" x2="263.443" y2="316" stroke="#242F40" stroke-width="0.219444"/>
<line x1="280.999" x2="280.999" y2="316" stroke="#242F40" stroke-width="0.219444"/>
<line x1="298.554" x2="298.554" y2="316" stroke="#242F40" stroke-width="0.219444"/>
<line x1="316.11" x2="316.11" y2="316" stroke="#242F40" stroke-width="0.219444"/>
<line x1="333.665" x2="333.665" y2="316" stroke="#242F40" stroke-width="0.219444"/>
<line x1="351.221" x2="351.221" y2="316" stroke="#242F40" stroke-width="0.219444"/>
<line x1="368.776" x2="368.776" y2="316" stroke="#242F40" stroke-width="0.219444"/>
<line x1="386.332" x2="386.332" y2="316" stroke="#242F40" stroke-width="0.219444"/>
<line x1="403.887" x2="403.887" y2="316" stroke="#242F40" stroke-width="0.219444"/>
<g clip-path="url(#clip1_3194_6174)">
<line y1="17.4458" x2="421.333" y2="17.4458" stroke="#242F40" stroke-width="0.219444"/>
<line y1="35.0014" x2="421.333" y2="35.0014" stroke="#242F40" stroke-width="0.219444"/>
<line y1="52.5569" x2="421.333" y2="52.5569" stroke="#242F40" stroke-width="0.219444"/>
<line y1="70.1125" x2="421.333" y2="70.1125" stroke="#242F40" stroke-width="0.219444"/>
<line y1="87.668" x2="421.333" y2="87.668" stroke="#242F40" stroke-width="0.219444"/>
<line y1="105.224" x2="421.333" y2="105.224" stroke="#242F40" stroke-width="0.219444"/>
<line y1="122.779" x2="421.333" y2="122.779" stroke="#242F40" stroke-width="0.219444"/>
<line y1="140.335" x2="421.333" y2="140.335" stroke="#242F40" stroke-width="0.219444"/>
<line y1="157.89" x2="421.333" y2="157.89" stroke="#242F40" stroke-width="0.219444"/>
<line y1="175.446" x2="421.333" y2="175.446" stroke="#242F40" stroke-width="0.219444"/>
<line y1="193.001" x2="421.333" y2="193.001" stroke="#242F40" stroke-width="0.219444"/>
<line y1="210.557" x2="421.333" y2="210.557" stroke="#242F40" stroke-width="0.219444"/>
<line y1="228.113" x2="421.333" y2="228.113" stroke="#242F40" stroke-width="0.219444"/>
</g>
</g>
<defs>
<clipPath id="clip0_3194_6174">
<rect width="421.333" height="241" fill="white"/>
</clipPath>
<clipPath id="clip1_3194_6174">
<rect width="421.333" height="298.444" fill="white"/>
</clipPath>
</defs>
</svg>
